<?xml version="1.0" encoding="utf-8"?>
<!-- Generator: Adobe Illustrator 16.0.0, SVG Export Plug-In . SVG Version: 6.00 Build 0)  -->
<!DOCTYPE svg PUBLIC "-//W3C//DTD SVG 1.1//EN" "http://www.w3.org/Graphics/SVG/1.1/DTD/svg11.dtd">
<svg version="1.1" id="Layer_1" xmlns="http://www.w3.org/2000/svg" xmlns:xlink="http://www.w3.org/1999/xlink" x="0px" y="0px"
	 width="146px" height="31px" viewBox="-369.5 296 146 31" enable-background="new -369.5 296 146 31" xml:space="preserve">
<g>
	<polygon points="-354.828,296.672 -354.828,306.771 -366.27,306.771 -366.27,296.672 -369.5,296.672 -369.5,320.042 
		-366.27,320.042 -366.27,309.77 -354.828,309.77 -354.828,320.042 -351.598,320.042 -351.598,296.672 	"/>
	<g>
		<path d="M-325.506,306.561c-2.835,0-4.714,2.375-4.714,5.539c0,3.265,1.879,5.604,4.714,5.604c2.869,0,4.681-2.341,4.681-5.604
			C-320.826,308.936-322.605,306.561-325.506,306.561 M-333.252,326.307v-22.119h3.001v2.474c0.854-1.584,2.733-2.837,5.306-2.837
			c4.747,0,7.286,3.658,7.286,8.273c0,4.713-2.736,8.373-7.384,8.373c-2.439,0-4.285-1.154-5.143-2.57v8.406H-333.252
			L-333.252,326.307z"/>
		<path d="M-307.961,306.561c-2.835,0-4.713,2.375-4.713,5.539c0,3.265,1.878,5.604,4.713,5.604c2.867,0,4.681-2.341,4.681-5.604
			C-303.281,308.936-305.06,306.561-307.961,306.561 M-315.709,326.307v-22.119h3v2.474c0.857-1.584,2.736-2.837,5.309-2.837
			c4.745,0,7.286,3.658,7.286,8.273c0,4.713-2.738,8.373-7.385,8.373c-2.439,0-4.285-1.154-5.142-2.57v8.406H-315.709
			L-315.709,326.307z"/>
	</g>
	<polygon points="-297.589,326.67 -293.633,318.296 -300.456,304.188 -296.897,304.188 -291.95,315.132 -287.205,304.188 
		-283.876,304.188 -294.194,326.67 	"/>
	<polygon points="-278.681,320.044 -278.681,296.672 -264.472,296.672 -264.472,299.671 -275.45,299.671 -275.45,306.766 
		-265.493,306.766 -265.493,309.797 -275.45,309.797 -275.45,320.044 	"/>
	<g>
		<path d="M-231.333,317.21c2.604,0,4.385-1.452,4.385-3.728c0-2.24-1.417-3.822-4.254-3.822h-5.92v7.55H-231.333z
			 M-231.795,306.891c2.604,0,4.154-1.55,4.154-3.727c0-2.208-1.616-3.657-4.285-3.657h-5.196v7.384H-231.795z M-231.432,296.672
			c4.449,0,7.056,2.637,7.056,6.329c0,2.505-1.453,4.285-3.497,5.043c2.671,0.66,4.221,3.033,4.221,5.638
			c0,3.691-2.934,6.362-7.218,6.362h-9.481v-23.372H-231.432z"/>
		<path d="M-255.893,317.627c-2.409,0-4.229-1.763-4.229-4.1c0-1.518,0.696-2.816,1.955-3.655l1.267-0.802l5.895,6.572
			C-252.115,317.014-253.625,317.627-255.893,317.627 M-255.529,298.615c1.988,0,3.174,1.15,3.174,3.078
			c0,2.182-1.574,3.041-3.242,3.947c-0.112,0.062-0.223,0.123-0.334,0.186c-0.153-0.168-0.312-0.337-0.473-0.508
			c-1.033-1.102-2.104-2.239-2.104-3.791C-258.507,299.812-257.282,298.615-255.529,298.615 M-243.341,309.66V309.1v-0.604v-1.604
			h-5.287v0.2c0.008,1.919,0.019,4.522-0.729,6.06l-4.633-5.229c0.239-0.146,0.481-0.303,0.717-0.453
			c0.275-0.18,0.562-0.362,0.84-0.528c1.973-1.188,3.061-3.064,3.061-5.277c0-3.385-2.447-5.661-6.089-5.661
			c-3.49,0-6.023,2.338-6.023,5.562c0,2.435,1.251,3.834,2.706,5.446l-1.033,0.648c-2.13,1.341-3.353,3.504-3.353,5.937
			c0,4.049,3.059,6.881,7.438,6.881c2.705,0,5.125-0.963,6.66-2.643l1.957,2.213h3.885l-4.104-4.582
			c0.978-1.452,1.468-3.832,1.562-5.802L-243.341,309.66L-243.341,309.66z"/>
		<path d="M-338.968,313.253c0,3.461-2.046,4.681-4.582,4.681c-1.584,0-2.572-1.121-2.572-2.306c0-1.419,0.988-2.178,2.308-2.375
			l4.847-0.728L-338.968,313.253L-338.968,313.253z M-342.462,303.693c-3.431,0-6.164,2.109-6.495,5.143l2.966,0.691
			c0.197-1.846,1.418-3.196,3.593-3.196c2.407,0,3.43,1.284,3.43,2.834c0,0.562-0.265,1.055-1.221,1.187l-4.286,0.627
			c-2.735,0.396-4.814,1.979-4.814,4.812c0,2.505,2.079,4.747,5.309,4.747c2.834,0,4.418-1.517,5.11-2.638v2.144h2.999v-10.549
			C-335.871,306.396-337.717,303.693-342.462,303.693"/>
	</g>
</g>
</svg>
