<?xml version="1.0" encoding="UTF-8" standalone="no"?>
<svg width="325px" height="106px" viewBox="0 0 325 106" version="1.1" xmlns="http://www.w3.org/2000/svg" xmlns:xlink="http://www.w3.org/1999/xlink">
    <!-- Generator: Sketch 43.2 (39069) - http://www.bohemiancoding.com/sketch -->
    <title>Logotype</title>
    <desc>Created with Sketch.</desc>
    <defs>
        <linearGradient x1="-195.9318%" y1="100%" x2="109.576723%" y2="100%" id="linearGradient-1">
            <stop stop-color="#FFFFFF" stop-opacity="0.5" offset="0%"></stop>
            <stop stop-color="#98BC36" offset="100%"></stop>
        </linearGradient>
    </defs>
    <g id="Symbols" stroke="none" stroke-width="1" fill="none" fill-rule="evenodd">
        <g id="Logotype">
            <g id="Symbol" transform="translate(0.000000, 0.991000)" fill="url(#linearGradient-1)">
                <path d="M36.256,44.862 C36.256,34.16 44.961,25.455 55.662,25.455 C66.364,25.455 75.07,34.16 75.07,44.862 C75.07,55.562 66.364,64.27 55.662,64.27 C44.961,64.27 36.256,55.562 36.256,44.862 Z M43.981,44.862 C43.981,51.302 49.221,56.543 55.662,56.543 C62.104,56.543 67.343,51.302 67.343,44.862 C67.343,38.42 62.104,33.179 55.662,33.179 C49.221,33.179 43.981,38.42 43.981,44.862 Z" id="Combined-Shape"></path>
                <path d="M0.372,56.244 C0.372,25.755 25.175,0.953 55.662,0.953 C86.153,0.953 110.955,25.755 110.955,56.244 C110.955,76.094 100.218,94.524 82.929,104.343 C82.389,104.654 81.77,104.816 81.144,104.816 C80.734,104.816 80.322,104.743 79.918,104.6 C78.92,104.24 78.135,103.465 77.764,102.471 L67.059,74.055 C63.493,75.762 59.66,76.626 55.662,76.626 C51.664,76.626 47.833,75.762 44.265,74.055 L33.563,102.471 C33.189,103.465 32.405,104.242 31.409,104.6 C31.015,104.742 30.604,104.815 30.182,104.815 C29.557,104.815 28.938,104.65 28.397,104.343 C11.109,94.524 0.372,76.094 0.372,56.244 Z M7.598,56.244 C7.598,72.059 15.344,86.789 28.354,95.787 L39.013,67.5 C39.402,66.456 40.273,65.64 41.337,65.315 C41.68,65.211 42.035,65.159 42.393,65.159 C43.147,65.159 43.871,65.39 44.485,65.828 C47.768,68.162 51.633,69.397 55.662,69.397 C59.692,69.397 63.555,68.162 66.836,65.828 C67.45,65.393 68.174,65.161 68.934,65.161 C69.298,65.161 69.653,65.213 69.99,65.315 C71.05,65.639 71.921,66.453 72.316,67.497 L82.968,95.787 C95.981,86.787 103.729,72.059 103.729,56.244 C103.729,29.744 82.166,8.184 55.662,8.184 C29.16,8.184 7.598,29.744 7.598,56.244 Z" id="Clip-4"></path>
            </g>
            <g id="Wordmark" transform="translate(122.000000, 32.991000)">
                <path d="M30.0797,56.6354 C30.0797,60.6804 27.1847,64.0204 23.0277,64.0204 C18.9837,64.0204 15.9397,60.6804 15.9397,56.5614 L15.9397,56.4874 C15.9397,52.4414 18.7977,49.0644 22.9547,49.0644 C26.9987,49.0644 30.0797,52.4414 30.0797,56.5614 L30.0797,56.6354 Z M23.0277,46.5414 C17.2397,46.5414 13.0077,51.1434 13.0077,56.5614 L13.0077,56.6354 C13.0077,62.0534 17.2017,66.5814 22.9547,66.5814 C28.7427,66.5814 33.0117,61.9794 33.0117,56.5614 L33.0117,56.4874 C33.0117,51.0684 28.7797,46.5414 23.0277,46.5414 L23.0277,46.5414 Z" id="Fill-6" fill="#767B79"></path>
                <path d="M74.2843,20.9327 L74.2843,20.8587 C74.2843,16.8877 71.6113,14.7727 65.8223,13.5107 C60.1073,12.2857 58.7713,10.9127 58.7713,8.4637 L58.7713,8.3897 C58.7713,6.0517 60.9233,4.1957 64.3013,4.1957 C66.7633,4.1957 69.0043,4.9207 71.2283,6.5727 C71.5453,6.8087 71.9913,6.7587 72.2293,6.4437 L73.0783,5.3177 C73.3143,5.0057 73.2563,4.5507 72.9423,4.3177 C70.4793,2.4897 67.8923,1.5607 64.3753,1.5607 C59.4393,1.5607 55.8393,4.5667 55.8393,8.6497 L55.8393,8.7237 C55.8393,12.9917 58.5863,14.9207 64.5613,16.2197 C70.0163,17.3697 71.3153,18.7437 71.3153,21.1557 L71.3153,21.2297 C71.3153,23.7907 69.0133,25.6467 65.5253,25.6467 C62.1673,25.6467 59.6813,24.5797 57.1633,22.4487 C56.8613,22.1927 56.4113,22.2187 56.1563,22.5207 L55.2583,23.5827 C55.0053,23.8817 55.0383,24.3387 55.3393,24.5897 C58.3073,27.0607 61.5313,28.2807 65.4133,28.2807 C70.5723,28.2807 74.2843,25.3867 74.2843,20.9327" id="Fill-8" fill="#767B79"></path>
                <path d="M18.0921,42.2919 C18.0921,43.2609 18.8351,44.0549 19.7431,44.0549 C20.6511,44.0549 21.3951,43.2609 21.3951,42.2919 C21.3951,41.3229 20.6511,40.5289 19.7431,40.5289 C18.8351,40.5289 18.0921,41.3229 18.0921,42.2919" id="Fill-10" fill="#767B79"></path>
                <path d="M26.2382,40.5293 C25.3292,40.5293 24.5862,41.3223 24.5862,42.2923 C24.5862,43.2613 25.3292,44.0543 26.2382,44.0543 C27.1472,44.0543 27.8902,43.2613 27.8902,42.2923 C27.8902,41.3223 27.1472,40.5293 26.2382,40.5293" id="Fill-12" fill="#767B79"></path>
                <path d="M57.0262,55.1883 C54.4652,54.4083 52.0902,53.7043 52.0902,51.8853 L52.0902,51.8113 C52.0902,50.2153 53.5382,49.0273 55.8022,49.0273 C57.4502,49.0273 59.2452,49.5843 60.8752,50.5153 C61.2142,50.7093 61.6442,50.6113 61.8462,50.2773 L62.4152,49.3333 C62.6162,49.0003 62.5182,48.5563 62.1802,48.3613 C60.3032,47.2793 57.9842,46.6153 55.8762,46.6153 C52.0902,46.6153 49.3442,48.8053 49.3442,52.1083 L49.3442,52.1823 C49.3442,55.7073 52.6842,56.7463 55.6902,57.6003 C58.2142,58.3053 60.4782,59.0483 60.4782,60.9773 L60.4782,61.0513 C60.4782,62.9073 58.8072,64.0953 56.5072,64.0953 C54.4502,64.0953 52.3632,63.3603 50.4402,62.0563 C50.1172,61.8373 49.6822,61.9033 49.4562,62.2213 L48.8162,63.1243 C48.5942,63.4373 48.6532,63.8803 48.9652,64.1033 C51.0682,65.6003 53.8382,66.5073 56.3592,66.5073 C60.1802,66.5073 63.1872,64.3923 63.1872,60.7543 L63.1872,60.6803 C63.1872,57.2293 59.9952,56.0793 57.0262,55.1883" id="Fill-14" fill="#767B79"></path>
                <path d="M69.5363,42.2919 C69.5363,43.2609 70.2793,44.0549 71.1873,44.0549 C72.0963,44.0549 72.8393,43.2609 72.8393,42.2919 C72.8393,41.3229 72.0963,40.5289 71.1873,40.5289 C70.2793,40.5289 69.5363,41.3229 69.5363,42.2919" id="Fill-16" fill="#767B79"></path>
                <path d="M77.6819,44.0546 C78.5899,44.0546 79.3329,43.2616 79.3329,42.2916 C79.3329,41.3226 78.5899,40.5296 77.6819,40.5296 C76.7739,40.5296 76.0309,41.3226 76.0309,42.2916 C76.0309,43.2616 76.7739,44.0546 77.6819,44.0546" id="Fill-18" fill="#767B79"></path>
                <path d="M121.4619,39.6012 C120.5639,39.6012 119.8289,40.3112 119.8289,41.1782 C119.8289,42.0462 120.5639,42.7552 121.4619,42.7552 C122.3599,42.7552 123.0949,42.0462 123.0949,41.1782 C123.0949,40.3112 122.3599,39.6012 121.4619,39.6012" id="Fill-20" fill="#767B79"></path>
                <path d="M122.1656,46.9494 L120.7206,46.9494 C120.3306,46.9494 120.0146,47.2654 120.0146,47.6554 L120.0146,65.4294 C120.0146,65.8194 120.3306,66.1354 120.7206,66.1354 L122.1656,66.1354 C122.5556,66.1354 122.8716,65.8194 122.8716,65.4294 L122.8716,47.6554 C122.8716,47.2654 122.5556,46.9494 122.1656,46.9494" id="Fill-22" fill="#767B79"></path>
                <path d="M3.2458,27.9099 L4.6918,27.9099 C5.0818,27.9099 5.3978,27.5939 5.3978,27.2049 L5.3978,26.1429 L5.3978,16.9619 C5.3978,16.8159 5.4078,16.6739 5.4148,16.5309 C5.5958,13.2339 7.8258,10.9129 10.7418,10.9129 C13.7558,10.9129 15.6368,12.9929 15.6718,16.5309 C15.6718,16.5649 15.6788,16.5939 15.6788,16.6279 L15.6788,26.1429 L15.6788,27.2049 C15.6788,27.5939 15.9938,27.9099 16.3838,27.9099 L17.8298,27.9099 C18.2198,27.9099 18.5348,27.5939 18.5348,27.2049 L18.5348,26.1429 L18.5348,16.8509 C18.5348,16.7379 18.5568,16.6409 18.5608,16.5309 C18.6678,13.7229 20.1088,11.8779 22.0858,11.2109 C22.3508,11.1219 22.6238,11.0499 22.9038,10.9979 C23.1978,10.9499 23.4968,10.9129 23.8048,10.9129 C26.9228,10.9129 28.7778,12.9909 28.7778,16.7019 L28.7778,26.1429 L28.7778,27.2049 C28.7778,27.5939 29.0938,27.9099 29.4828,27.9099 L30.9308,27.9099 C31.3198,27.9099 31.6358,27.5939 31.6358,27.2049 L31.6358,26.1429 L31.6358,16.0339 C31.6358,11.2839 28.9268,8.3149 24.5108,8.3149 C24.0588,8.3149 23.6348,8.3519 23.2288,8.4109 C23.1188,8.4269 23.0188,8.4559 22.9128,8.4759 C22.6178,8.5319 22.3308,8.5949 22.0598,8.6799 C21.9628,8.7109 21.8718,8.7479 21.7768,8.7819 C21.5068,8.8789 21.2458,8.9869 20.9988,9.1109 C20.9278,9.1469 20.8588,9.1849 20.7888,9.2229 C20.5288,9.3649 20.2798,9.5189 20.0438,9.6879 C20.0198,9.7049 19.9908,9.7179 19.9668,9.7359 L19.9778,9.7359 C19.0818,10.3939 18.3508,11.2219 17.7558,12.1369 C17.3098,11.2129 16.6728,10.3889 15.8588,9.7359 L15.8668,9.7359 C15.8488,9.7209 15.8258,9.7109 15.8068,9.6959 C15.5808,9.5179 15.3398,9.3559 15.0848,9.2089 C15.0278,9.1759 14.9718,9.1429 14.9128,9.1119 C14.6738,8.9829 14.4198,8.8719 14.1558,8.7729 C14.0728,8.7409 13.9928,8.7069 13.9078,8.6789 C13.6478,8.5929 13.3718,8.5279 13.0878,8.4719 C12.9918,8.4529 12.9008,8.4259 12.8018,8.4099 C12.4188,8.3519 12.0198,8.3149 11.5958,8.3149 C11.1568,8.3149 10.7508,8.3529 10.3658,8.4129 C10.2548,8.4309 10.1548,8.4609 10.0468,8.4839 C9.7788,8.5389 9.5168,8.6009 9.2738,8.6829 C9.1718,8.7179 9.0768,8.7599 8.9788,8.7989 C8.7428,8.8919 8.5148,8.9929 8.3018,9.1099 C8.2238,9.1519 8.1488,9.1959 8.0738,9.2409 C7.8508,9.3759 7.6378,9.5199 7.4378,9.6749 C7.4098,9.6969 7.3758,9.7139 7.3488,9.7359 L7.3598,9.7359 C6.5708,10.3669 5.9378,11.1409 5.3978,11.9519 L5.3978,9.7359 L5.3978,9.4289 C5.3978,9.0389 5.0818,8.7239 4.6918,8.7239 L3.2458,8.7239 C2.8558,8.7239 2.5408,9.0389 2.5408,9.4289 L2.5408,9.7359 L2.5408,26.1429 L2.5408,27.2049 C2.5408,27.5939 2.8558,27.9099 3.2458,27.9099" id="Fill-24" fill="#98BC36"></path>
                <path d="M39.4663,33.9127 C39.5073,33.9087 39.5493,33.9047 39.5903,33.8997 C39.8423,33.8677 40.0853,33.8207 40.3213,33.7597 C40.3583,33.7507 40.3943,33.7397 40.4303,33.7297 C40.6733,33.6617 40.9093,33.5807 41.1373,33.4787 C41.1423,33.4767 41.1463,33.4737 41.1513,33.4717 C41.3923,33.3627 41.6243,33.2347 41.8483,33.0857 C41.8523,33.0837 41.8553,33.0817 41.8593,33.0797 C42.0803,32.9317 42.2943,32.7617 42.5023,32.5727 C42.5153,32.5607 42.5283,32.5487 42.5423,32.5367 C43.1803,31.9467 43.7593,31.1527 44.3023,30.1217 L44.3033,30.1207 L44.3033,30.1207 C44.5543,29.6437 44.7993,29.1227 45.0383,28.5407 L46.9033,23.9507 L47.4423,22.6257 L51.8883,11.6837 L52.6953,9.6977 C52.8843,9.2327 52.5423,8.7237 52.0393,8.7237 L50.5333,8.7237 C50.2413,8.7237 49.9783,8.9037 49.8733,9.1767 L45.1873,21.3417 L45.1883,21.3417 L43.8873,24.7177 L42.4143,21.3417 L37.0963,9.1487 C36.9843,8.8897 36.7293,8.7237 36.4473,8.7237 L34.8573,8.7237 C34.3423,8.7237 34.0003,9.2567 34.2133,9.7247 L35.1073,11.6837 L35.1073,11.6837 L42.4783,27.8357 C42.0563,28.8277 41.6443,29.5707 41.2083,30.1207 L41.2013,30.1207 C41.0133,30.3567 40.8213,30.5557 40.6223,30.7237 C40.6193,30.7257 40.6173,30.7267 40.6143,30.7287 C40.4323,30.8807 40.2433,30.9987 40.0473,31.0987 C40.0063,31.1197 39.9643,31.1387 39.9233,31.1567 C39.7583,31.2317 39.5853,31.2867 39.4063,31.3297 C39.3543,31.3427 39.3033,31.3587 39.2503,31.3687 C39.0253,31.4107 38.7923,31.4357 38.5433,31.4357 C38.4493,31.4357 38.3713,31.4247 38.2813,31.4227 L38.2813,31.4257 C37.4633,31.4017 36.8003,31.2747 36.1593,31.0177 C35.8053,30.8757 35.4043,31.0447 35.2543,31.3957 L34.8453,32.3547 C34.6883,32.7217 34.8683,33.1417 35.2373,33.2937 C36.2933,33.7307 37.3343,33.9587 38.6553,33.9587 C38.9363,33.9587 39.2043,33.9407 39.4663,33.9127" id="Fill-26" fill="#98BC36"></path>
                <path d="M84.4555,26.0545 C81.8575,26.0545 79.6315,24.6445 79.6315,22.2315 L79.6315,22.1575 C79.6315,19.7455 81.6345,18.1865 85.2345,18.1865 C87.5725,18.1865 89.4655,18.5945 90.8765,19.0035 L90.8765,20.8585 C90.8765,23.9015 87.9805,26.0545 84.4555,26.0545 M90.8385,25.0155 L90.8385,27.1705 L90.8385,27.2015 L90.8385,27.2435 L90.8475,27.2435 C90.8705,27.6135 91.1715,27.9095 91.5475,27.9095 L92.8765,27.9095 C93.2525,27.9095 93.5535,27.6135 93.5765,27.2435 L93.5855,27.2435 L93.5855,27.2015 L93.5855,27.1025 L93.5855,16.1825 C93.5855,15.9645 93.5735,15.7575 93.5625,15.5485 L93.5625,15.5485 C93.5365,15.0265 93.4755,14.5355 93.3835,14.0725 C93.3795,14.0505 93.3755,14.0295 93.3715,14.0085 C93.2795,13.5615 93.1585,13.1415 93.0055,12.7485 C92.9935,12.7165 92.9795,12.6855 92.9665,12.6535 C92.8125,12.2725 92.6325,11.9135 92.4205,11.5825 C92.4025,11.5545 92.3815,11.5295 92.3635,11.5025 C92.1425,11.1695 91.8985,10.8585 91.6185,10.5785 C90.2075,9.1685 88.1305,8.4635 85.4205,8.4635 C84.8605,8.4635 84.3375,8.4975 83.8295,8.5465 C83.6905,8.5595 83.5535,8.5755 83.4175,8.5915 C82.9875,8.6445 82.5695,8.7115 82.1675,8.7965 C82.1015,8.8105 82.0315,8.8195 81.9675,8.8345 C81.6045,8.9165 81.2505,9.0095 80.9035,9.1145 L80.9565,9.1145 C80.3095,9.3085 79.6755,9.5265 79.0535,9.7905 C78.7095,9.9365 78.5445,10.3325 78.6725,10.6845 L79.0375,11.6865 C79.1745,12.0625 79.5985,12.2575 79.9665,12.1025 C80.6845,11.7995 81.4155,11.5475 82.1835,11.3555 C82.5855,11.2545 83.0025,11.1775 83.4295,11.1155 C83.4895,11.1075 83.5455,11.0925 83.6055,11.0855 C84.0895,11.0225 84.5925,10.9875 85.1235,10.9875 C85.5545,10.9875 85.9615,11.0165 86.3485,11.0665 C86.5235,11.0905 86.6795,11.1335 86.8445,11.1675 C87.0415,11.2065 87.2425,11.2415 87.4255,11.2955 C87.6325,11.3565 87.8205,11.4395 88.0105,11.5195 C88.1255,11.5675 88.2455,11.6105 88.3535,11.6655 C88.5645,11.7735 88.7565,11.9005 88.9415,12.0335 C89.0055,12.0795 89.0735,12.1215 89.1345,12.1695 C89.3305,12.3295 89.5085,12.5065 89.6725,12.6975 C89.7035,12.7335 89.7375,12.7685 89.7675,12.8055 C89.9375,13.0185 90.0885,13.2505 90.2175,13.4995 C90.2295,13.5235 90.2425,13.5465 90.2545,13.5695 C90.3875,13.8375 90.4985,14.1245 90.5855,14.4335 C90.5875,14.4425 90.5905,14.4525 90.5935,14.4625 C90.6805,14.7835 90.7445,15.1255 90.7805,15.4895 L90.7805,15.4895 C90.8035,15.7295 90.8385,15.9605 90.8385,16.2195 L90.8385,16.8875 C89.1325,16.4055 87.3875,16.0715 84.9385,16.0715 C80.0765,16.0715 76.7365,18.2235 76.7365,22.2685 L76.7365,22.3435 C76.7365,26.2765 80.3365,28.3185 83.8995,28.3185 C87.2765,28.3185 89.5035,26.7595 90.8385,25.0155" id="Fill-28" fill="#767B79"></path>
                <path d="M79.5934,59.0846 C79.5934,62.1276 76.6984,64.2806 73.1724,64.2806 C70.5744,64.2806 68.3484,62.8706 68.3484,60.4576 L68.3484,60.3836 C68.3484,57.9716 70.3514,56.4126 73.9514,56.4126 C76.2894,56.4126 78.1834,56.8206 79.5934,57.2296 L79.5934,59.0846 Z M82.2794,53.7746 C82.2534,53.2526 82.1924,52.7616 82.1014,52.2986 C82.0964,52.2766 82.0924,52.2556 82.0884,52.2346 C81.9964,51.7876 81.8754,51.3676 81.7234,50.9746 C81.7104,50.9426 81.6964,50.9116 81.6834,50.8796 C81.5294,50.4986 81.3494,50.1386 81.1374,49.8086 C81.1194,49.7806 81.0994,49.7556 81.0804,49.7276 C80.8594,49.3956 80.6154,49.0846 80.3354,48.8046 C78.9254,47.3946 76.8474,46.6896 74.1374,46.6896 C73.5774,46.6896 73.0544,46.7236 72.5464,46.7726 C72.4074,46.7856 72.2704,46.8016 72.1344,46.8176 C71.7054,46.8706 71.2874,46.9376 70.8844,47.0226 C70.8184,47.0366 70.7494,47.0456 70.6844,47.0606 C70.3214,47.1426 69.9674,47.2356 69.6204,47.3406 L69.6734,47.3406 C69.0264,47.5346 68.3924,47.7526 67.7704,48.0166 C67.4264,48.1626 67.2614,48.5586 67.3894,48.9106 L67.7544,49.9126 C67.8924,50.2886 68.3154,50.4836 68.6844,50.3276 C69.4014,50.0256 70.1334,49.7736 70.9014,49.5816 C71.3024,49.4806 71.7194,49.4036 72.1464,49.3416 C72.2064,49.3336 72.2624,49.3186 72.3224,49.3116 C72.8064,49.2486 73.3094,49.2136 73.8414,49.2136 C74.2724,49.2136 74.6784,49.2416 75.0664,49.2926 C75.2404,49.3166 75.3964,49.3596 75.5614,49.3936 C75.7584,49.4326 75.9594,49.4676 76.1424,49.5216 C76.3504,49.5826 76.5374,49.6656 76.7274,49.7456 C76.8424,49.7936 76.9624,49.8366 77.0714,49.8906 C77.2814,49.9986 77.4734,50.1266 77.6584,50.2596 C77.7224,50.3056 77.7904,50.3476 77.8514,50.3956 C78.0484,50.5556 78.2264,50.7326 78.3894,50.9236 C78.4214,50.9596 78.4544,50.9946 78.4844,51.0316 C78.6544,51.2446 78.8054,51.4756 78.9344,51.7256 C78.9474,51.7496 78.9594,51.7726 78.9714,51.7956 C79.1044,52.0636 79.2164,52.3506 79.3024,52.6586 C79.3054,52.6686 79.3074,52.6786 79.3104,52.6886 C79.3984,53.0096 79.4614,53.3516 79.4974,53.7156 L79.4974,53.7156 C79.5204,53.9556 79.5564,54.1866 79.5564,54.4456 L79.5564,55.1136 C77.8494,54.6316 76.1044,54.2976 73.6554,54.2976 C68.7934,54.2976 65.4534,56.4496 65.4534,60.4946 L65.4534,60.5686 C65.4534,64.5026 69.0534,66.5446 72.6164,66.5446 C75.9934,66.5446 78.2204,64.9856 79.5564,63.2406 L79.5564,65.3966 L79.5564,65.4276 L79.5564,65.4696 L79.5644,65.4696 C79.5874,65.8396 79.8884,66.1356 80.2644,66.1356 L81.5934,66.1356 C81.9704,66.1356 82.2704,65.8396 82.2934,65.4696 L82.3024,65.4696 L82.3024,65.4276 L82.3024,65.3286 L82.3024,54.4086 C82.3024,54.1906 82.2904,53.9826 82.2804,53.7746 L82.2794,53.7746 Z" id="Fill-30" fill="#767B79"></path>
                <path d="M184.9294,59.0846 C184.9294,62.1276 182.0344,64.2806 178.5084,64.2806 C175.9104,64.2806 173.6844,62.8706 173.6844,60.4576 L173.6844,60.3836 C173.6844,57.9716 175.6874,56.4126 179.2874,56.4126 C181.6254,56.4126 183.5194,56.8206 184.9294,57.2296 L184.9294,59.0846 Z M187.6154,53.7746 C187.5894,53.2526 187.5284,52.7616 187.4374,52.2986 C187.4324,52.2766 187.4284,52.2556 187.4244,52.2346 C187.3324,51.7876 187.2114,51.3676 187.0594,50.9746 C187.0464,50.9426 187.0324,50.9116 187.0194,50.8796 C186.8654,50.4986 186.6854,50.1386 186.4734,49.8086 C186.4554,49.7806 186.4354,49.7556 186.4164,49.7276 C186.1954,49.3956 185.9514,49.0846 185.6714,48.8046 C184.2614,47.3946 182.1834,46.6896 179.4734,46.6896 C178.9134,46.6896 178.3904,46.7236 177.8824,46.7726 C177.7434,46.7856 177.6064,46.8016 177.4704,46.8176 C177.0414,46.8706 176.6234,46.9376 176.2204,47.0226 C176.1544,47.0366 176.0854,47.0456 176.0204,47.0606 C175.6574,47.1426 175.3034,47.2356 174.9564,47.3406 L175.0094,47.3406 C174.3624,47.5346 173.7284,47.7526 173.1064,48.0166 C172.7624,48.1626 172.5974,48.5586 172.7254,48.9106 L173.0904,49.9126 C173.2284,50.2886 173.6514,50.4836 174.0204,50.3276 C174.7374,50.0256 175.4694,49.7736 176.2374,49.5816 C176.6384,49.4806 177.0554,49.4036 177.4824,49.3416 C177.5424,49.3336 177.5984,49.3186 177.6584,49.3116 C178.1424,49.2486 178.6454,49.2136 179.1774,49.2136 C179.6084,49.2136 180.0144,49.2416 180.4024,49.2926 C180.5764,49.3166 180.7324,49.3596 180.8974,49.3936 C181.0944,49.4326 181.2954,49.4676 181.4784,49.5216 C181.6864,49.5826 181.8734,49.6656 182.0634,49.7456 C182.1784,49.7936 182.2984,49.8366 182.4074,49.8906 C182.6174,49.9986 182.8094,50.1266 182.9944,50.2596 C183.0584,50.3056 183.1264,50.3476 183.1874,50.3956 C183.3844,50.5556 183.5624,50.7326 183.7254,50.9236 C183.7574,50.9596 183.7904,50.9946 183.8204,51.0316 C183.9904,51.2446 184.1414,51.4756 184.2704,51.7256 C184.2834,51.7496 184.2954,51.7726 184.3074,51.7956 C184.4404,52.0636 184.5524,52.3506 184.6384,52.6586 C184.6414,52.6686 184.6434,52.6786 184.6464,52.6886 C184.7344,53.0096 184.7974,53.3516 184.8334,53.7156 L184.8334,53.7156 C184.8564,53.9556 184.8924,54.1866 184.8924,54.4456 L184.8924,55.1136 C183.1854,54.6316 181.4404,54.2976 178.9914,54.2976 C174.1294,54.2976 170.7894,56.4496 170.7894,60.4946 L170.7894,60.5686 C170.7894,64.5026 174.3894,66.5446 177.9524,66.5446 C181.3294,66.5446 183.5564,64.9856 184.8924,63.2406 L184.8924,65.3966 L184.8924,65.4276 L184.8924,65.4696 L184.9004,65.4696 C184.9234,65.8396 185.2244,66.1356 185.6004,66.1356 L186.9294,66.1356 C187.3064,66.1356 187.6064,65.8396 187.6294,65.4696 L187.6384,65.4696 L187.6384,65.4276 L187.6384,65.3286 L187.6384,54.4086 C187.6384,54.1906 187.6264,53.9826 187.6164,53.7746 L187.6154,53.7746 Z" id="Fill-32" fill="#767B79"></path>
                <path d="M108.0609,10.5268 L108.0609,9.5178 C108.0609,9.1198 107.7389,8.7978 107.3409,8.7978 L106.2189,8.7978 L103.4269,8.7978 L101.9749,8.7978 L101.9749,7.3528 L101.9749,7.2388 C101.9749,4.4928 103.0889,3.1568 105.3149,3.1568 C105.6309,3.1568 105.9269,3.1828 106.2189,3.2198 L106.2189,3.2168 C106.5449,3.2588 106.8679,3.3188 107.2059,3.3998 C107.6589,3.5088 108.0979,3.1698 108.0979,2.7038 L108.0979,1.6788 C108.0979,1.3538 107.8809,1.0708 107.5689,0.9818 C106.8159,0.7678 106.0249,0.6698 104.9439,0.6698 C103.1999,0.6698 101.7899,1.1898 100.8249,2.1548 C99.7479,3.2308 99.1539,4.9008 99.1539,7.0898 L99.1539,7.3528 L99.1539,8.7608 L97.7599,8.7608 L97.3439,8.7608 L97.2399,8.7608 C96.8419,8.7608 96.5199,9.0828 96.5199,9.4808 L96.5199,10.5268 C96.5199,10.9248 96.8419,11.2468 97.2399,11.2468 L97.3439,11.2468 L97.7599,11.2468 L99.1539,11.2468 L99.1539,13.0608 L99.1539,25.6438 L99.1539,27.1898 C99.1539,27.5878 99.4769,27.9098 99.8739,27.9098 L101.2919,27.9098 C101.6899,27.9098 102.0119,27.5878 102.0119,27.1898 L102.0119,25.6438 L102.0119,13.0608 L102.0119,11.2468 L103.4269,11.2468 L106.2189,11.2468 L107.3409,11.2468 C107.7389,11.2468 108.0609,10.9248 108.0609,10.5268" id="Fill-34" fill="#767B79"></path>
                <path d="M111.4405,17.2592 C111.4805,16.8552 111.5505,16.4662 111.6385,16.0872 L111.6505,16.0872 C112.1065,14.1342 113.1765,12.5382 114.6365,11.6092 C114.6465,11.6032 114.6575,11.5952 114.6675,11.5892 C114.9425,11.4162 115.2325,11.2712 115.5335,11.1482 C115.5695,11.1332 115.6055,11.1202 115.6415,11.1062 C115.9345,10.9932 116.2395,10.9032 116.5545,10.8402 C116.5915,10.8332 116.6305,10.8292 116.6675,10.8222 C116.9945,10.7642 117.3295,10.7272 117.6755,10.7272 C118.0315,10.7272 118.3665,10.7622 118.6915,10.8132 C118.7515,10.8222 118.8135,10.8302 118.8725,10.8412 C119.1805,10.8992 119.4745,10.9782 119.7535,11.0792 C119.8025,11.0962 119.8485,11.1172 119.8965,11.1352 C120.1785,11.2462 120.4495,11.3732 120.7005,11.5242 C120.7025,11.5252 120.7045,11.5262 120.7065,11.5272 C120.9655,11.6842 121.2045,11.8662 121.4315,12.0622 C121.4615,12.0882 121.4935,12.1142 121.5235,12.1412 C121.7435,12.3412 121.9495,12.5552 122.1385,12.7882 C122.1515,12.8042 122.1645,12.8222 122.1775,12.8392 C122.5675,13.3312 122.8885,13.8892 123.1405,14.4942 C123.1465,14.5092 123.1525,14.5232 123.1585,14.5382 C123.2845,14.8462 123.3935,15.1642 123.4835,15.4932 L123.4845,15.4932 C123.6405,16.0602 123.7475,16.6522 123.7995,17.2592 L122.0525,17.2592 L114.0675,17.2592 L111.4405,17.2592 Z M126.6835,18.1812 L126.6835,18.1802 C126.6515,16.4692 126.3145,14.8662 125.6925,13.4682 C125.6895,13.4612 125.6855,13.4532 125.6825,13.4462 C125.5615,13.1762 125.4315,12.9132 125.2895,12.6602 C125.2785,12.6412 125.2665,12.6232 125.2565,12.6052 C125.1195,12.3642 124.9755,12.1292 124.8195,11.9052 C124.7985,11.8742 124.7755,11.8472 124.7535,11.8172 C124.6045,11.6072 124.4505,11.4022 124.2855,11.2082 C124.2495,11.1662 124.2105,11.1292 124.1735,11.0882 C124.0165,10.9112 123.8565,10.7362 123.6855,10.5742 C123.6335,10.5242 123.5745,10.4792 123.5205,10.4312 C123.3585,10.2842 123.1955,10.1392 123.0225,10.0072 C122.9505,9.9522 122.8725,9.9052 122.7985,9.8522 C122.6335,9.7352 122.4705,9.6172 122.2955,9.5122 C122.2005,9.4552 122.0975,9.4082 121.9995,9.3542 C121.8375,9.2662 121.6775,9.1742 121.5075,9.0962 C121.3835,9.0392 121.2495,8.9942 121.1215,8.9432 C120.9675,8.8822 120.8175,8.8152 120.6585,8.7632 C120.5005,8.7112 120.3345,8.6742 120.1715,8.6312 C120.0295,8.5932 119.8925,8.5492 119.7475,8.5182 C119.5505,8.4762 119.3445,8.4522 119.1405,8.4232 C119.0185,8.4052 118.9015,8.3792 118.7765,8.3672 C118.4435,8.3332 118.1015,8.3152 117.7495,8.3152 C112.4425,8.3152 108.5465,12.7682 108.5465,18.2982 L108.5465,18.3722 C108.5465,24.3102 112.8505,28.3552 118.1215,28.3552 C118.5035,28.3552 118.8685,28.3362 119.2235,28.3042 C119.3385,28.2942 119.4485,28.2772 119.5615,28.2642 C119.7965,28.2362 120.0285,28.2042 120.2525,28.1632 C120.3765,28.1402 120.4965,28.1142 120.6165,28.0872 C120.8225,28.0412 121.0225,27.9892 121.2195,27.9322 C121.3335,27.8992 121.4485,27.8662 121.5595,27.8292 C121.7625,27.7612 121.9585,27.6852 122.1515,27.6062 C122.2425,27.5682 122.3355,27.5352 122.4245,27.4952 C122.6945,27.3732 122.9565,27.2422 123.2085,27.0982 C123.2745,27.0602 123.3355,27.0172 123.3995,26.9782 C123.5885,26.8642 123.7745,26.7472 123.9535,26.6212 C124.0495,26.5542 124.1425,26.4812 124.2365,26.4112 C124.3245,26.3442 124.4175,26.2822 124.5035,26.2122 L124.4895,26.2122 C124.8385,25.9312 125.1785,25.6362 125.4995,25.3142 C125.7925,25.0192 125.7895,24.5442 125.4805,24.2672 L124.7455,23.6082 C124.4645,23.3562 124.0435,23.3752 123.7675,23.6322 C123.4755,23.9052 123.1685,24.1522 122.8515,24.3822 C122.7555,24.4522 122.6595,24.5242 122.5605,24.5902 C122.4025,24.6952 122.2395,24.7942 122.0735,24.8872 C121.9735,24.9442 121.8705,24.9942 121.7675,25.0462 C121.6485,25.1072 121.5285,25.1682 121.4055,25.2222 C121.3125,25.2632 121.2175,25.2982 121.1225,25.3352 C120.9985,25.3842 120.8735,25.4312 120.7455,25.4732 C120.6495,25.5052 120.5515,25.5342 120.4535,25.5622 C120.3165,25.6012 120.1775,25.6362 120.0355,25.6672 C119.9395,25.6892 119.8445,25.7102 119.7455,25.7282 C119.5845,25.7582 119.4185,25.7802 119.2505,25.8002 C119.1655,25.8112 119.0815,25.8242 118.9935,25.8322 C118.7355,25.8552 118.4705,25.8692 118.1945,25.8692 C117.8745,25.8692 117.5595,25.8422 117.2495,25.8012 C117.1965,25.7942 117.1425,25.7882 117.0895,25.7802 C116.7865,25.7322 116.4885,25.6672 116.1985,25.5812 C116.1635,25.5702 116.1285,25.5582 116.0925,25.5472 C114.1815,24.9432 112.6185,23.5002 111.8735,21.3372 L111.8655,21.3372 C111.6585,20.7362 111.5105,20.0842 111.4405,19.3742 L114.0675,19.3742 L125.2555,19.3742 L125.7245,19.3742 C125.7245,19.3742 126.6935,19.4932 126.6935,18.4472 C126.6935,18.3572 126.6855,18.2702 126.6835,18.1812 L126.6835,18.1812 Z" id="Fill-36" fill="#767B79"></path>
                <path d="M152.8617,28.541 L153.4717,27.04 L154.4267,24.689 L154.4267,24.689 L160.5127,9.713 C160.7047,9.241 160.3567,8.723 159.8457,8.723 L158.3647,8.723 C158.0677,8.723 157.8007,8.907 157.6937,9.184 L155.0927,15.936 L151.7107,24.718 L145.5677,10.634 L145.5627,10.634 C145.3227,10.08 145.1507,9.683 145.0857,9.529 C144.6767,8.561 143.6077,8.723 143.6077,8.723 L143.4267,8.723 L141.5797,8.723 L140.0567,8.723 L136.3017,8.723 L134.5717,8.723 L133.9697,8.723 L133.9697,5.009 L133.9697,3.653 C133.9697,3.256 133.6467,2.934 133.2497,2.934 L131.8317,2.934 C131.4347,2.934 131.1127,3.256 131.1127,3.653 L131.1127,5.009 L131.1127,7.103 L131.1127,8.723 L129.6457,8.723 L128.7407,8.723 L128.3617,8.723 L127.9827,8.723 C127.5867,8.723 127.2657,9.045 127.2657,9.441 L127.2657,10.529 C127.2657,10.925 127.5867,11.247 127.9827,11.247 L128.3617,11.247 L128.7407,11.247 L129.6457,11.247 L131.1127,11.247 L131.1127,12.478 L131.1127,22.825 C131.1127,26.722 133.4497,28.244 136.5297,28.244 C136.8967,28.244 137.2367,28.216 137.5657,28.175 C137.6087,28.169 137.6507,28.162 137.6937,28.155 C138.0037,28.111 138.3007,28.05 138.5847,27.971 C138.5857,27.97 138.5877,27.97 138.5897,27.97 L138.5887,27.97 C138.9277,27.875 139.2577,27.766 139.5717,27.625 C139.8257,27.512 139.9817,27.25 139.9817,26.972 L139.9817,26.031 C139.9817,25.539 139.4977,25.214 139.0287,25.366 C138.4187,25.564 137.8417,25.646 137.1987,25.646 C135.2687,25.646 133.9697,24.793 133.9697,22.454 L133.9697,11.247 L134.5717,11.247 L136.3017,11.247 L140.0567,11.247 L142.2687,11.247 C142.5507,11.247 142.8067,11.411 142.9237,11.667 L146.2457,18.948 L150.1657,27.54 C150.2477,27.718 150.2457,27.929 150.1747,28.111 C150.1197,28.233 150.0657,28.35 150.0117,28.464 C149.9467,28.602 149.8807,28.742 149.8147,28.869 C149.7397,29.016 149.6627,29.147 149.5867,29.279 C149.5217,29.392 149.4567,29.509 149.3917,29.611 C149.3127,29.733 149.2337,29.839 149.1537,29.947 C149.0887,30.036 149.0237,30.131 148.9577,30.211 C148.8747,30.31 148.7897,30.393 148.7057,30.478 C148.6397,30.545 148.5737,30.619 148.5057,30.678 C148.4167,30.756 148.3237,30.818 148.2317,30.882 C148.1637,30.929 148.0977,30.984 148.0287,31.024 C147.9287,31.083 147.8237,31.124 147.7197,31.169 C147.6527,31.198 147.5877,31.235 147.5177,31.259 C147.3997,31.3 147.2737,31.324 147.1477,31.35 C147.0867,31.363 147.0297,31.383 146.9667,31.393 C146.7747,31.421 146.5757,31.435 146.3667,31.435 C145.8377,31.435 145.3857,31.385 144.9597,31.299 L144.9597,31.304 C144.6237,31.236 144.3047,31.146 143.9927,31.022 C143.6327,30.879 143.2257,31.049 143.0727,31.406 L142.6727,32.344 C142.5137,32.716 142.6967,33.144 143.0717,33.299 C144.1237,33.732 145.1627,33.959 146.4787,33.959 C149.3727,33.959 151.2287,32.512 152.8617,28.541" id="Fill-38" fill="#767B79"></path>
                <path d="M12.0356,39.209 C11.2806,38.994 10.4896,38.896 9.4056,38.896 C7.6616,38.896 6.2516,39.416 5.2866,40.381 C4.2096,41.457 3.6166,43.127 3.6166,45.316 L3.6166,45.725 L3.6166,46.987 L2.6656,46.987 L1.9486,46.987 L1.6966,46.987 C1.3016,46.987 0.9816,47.306 0.9816,47.701 L0.9816,48.758 C0.9816,49.153 1.3016,49.473 1.6966,49.473 L1.9486,49.473 L2.6656,49.473 L3.6166,49.473 L3.6166,52.014 L3.6166,65.132 L3.6166,65.422 C3.6166,65.816 3.9356,66.136 4.3306,66.136 L5.7596,66.136 C6.1546,66.136 6.4746,65.816 6.4746,65.422 L6.4746,65.132 L6.4746,52.014 L6.4746,49.473 L7.6856,49.473 L11.6296,49.473 L11.8086,49.473 C12.2036,49.473 12.5226,49.153 12.5226,48.758 L12.5226,47.738 C12.5226,47.343 12.2036,47.024 11.8086,47.024 L11.6296,47.024 L7.6856,47.024 L6.4366,47.024 L6.4366,45.725 L6.4366,45.465 C6.4366,45.132 6.4546,44.821 6.4876,44.529 C6.5046,44.378 6.5376,44.246 6.5636,44.106 C6.5866,43.979 6.6046,43.844 6.6356,43.725 C6.6816,43.549 6.7436,43.394 6.8056,43.238 C6.8306,43.176 6.8496,43.106 6.8766,43.047 C6.9576,42.875 7.0526,42.722 7.1546,42.578 C7.1746,42.55 7.1906,42.517 7.2106,42.49 C7.3276,42.337 7.4596,42.202 7.6036,42.081 C7.6146,42.071 7.6246,42.059 7.6366,42.05 C7.7906,41.925 7.9606,41.818 8.1436,41.729 C8.1476,41.727 8.1506,41.725 8.1546,41.723 C8.5336,41.542 8.9746,41.437 9.4786,41.407 C9.5796,41.4 9.6706,41.383 9.7766,41.383 C10.4496,41.383 11.0316,41.473 11.6746,41.628 C12.1246,41.736 12.5606,41.4 12.5606,40.938 L12.5606,39.9 C12.5606,39.578 12.3446,39.297 12.0356,39.209" id="Fill-40" fill="#767B79"></path>
                <path d="M46.4879,46.6209 C46.3549,46.6289 46.2269,46.6509 46.0959,46.6649 L46.0959,46.6579 C46.0659,46.6619 46.0379,46.6709 46.0079,46.6749 C45.6719,46.7149 45.3429,46.7739 45.0259,46.8569 C45.0069,46.8619 44.9869,46.8649 44.9669,46.8699 C44.6339,46.9599 44.3109,47.0729 43.9989,47.2059 C43.9309,47.2349 43.8669,47.2689 43.8009,47.2989 C43.5749,47.4039 43.3559,47.5179 43.1419,47.6439 C43.0439,47.7009 42.9459,47.7589 42.8499,47.8199 C42.6599,47.9439 42.4769,48.0769 42.2979,48.2159 C42.1289,48.3469 41.9669,48.4869 41.8069,48.6309 C41.6859,48.7409 41.5649,48.8499 41.4499,48.9669 C41.3199,49.0989 41.1959,49.2369 41.0729,49.3769 C41.0389,49.4159 41.0019,49.4509 40.9689,49.4909 L40.9689,49.5029 C40.3579,50.2289 39.8339,51.0519 39.4329,51.9589 L39.4329,49.3109 L39.4329,48.2479 L39.4329,47.6639 C39.4329,47.2689 39.1139,46.9489 38.7189,46.9489 L37.2909,46.9489 C36.8959,46.9489 36.5759,47.2689 36.5759,47.6639 L36.5759,48.2479 L36.5759,64.1909 L36.5759,65.4219 C36.5759,65.8159 36.8959,66.1359 37.2909,66.1359 L38.7189,66.1359 C39.1139,66.1359 39.4329,65.8159 39.4329,65.4219 L39.4329,64.1909 L39.4329,58.4909 C39.4329,58.1419 39.4469,57.8049 39.4709,57.4759 C39.4789,57.3639 39.4949,57.2589 39.5059,57.1489 C39.5279,56.9379 39.5489,56.7269 39.5799,56.5239 C39.5989,56.3969 39.6259,56.2759 39.6489,56.1509 C39.6819,55.9759 39.7149,55.8009 39.7549,55.6329 C39.7859,55.5039 39.8229,55.3809 39.8579,55.2559 C39.9009,55.1039 39.9439,54.9519 39.9929,54.8059 C40.0359,54.6779 40.0829,54.5549 40.1309,54.4319 C40.1819,54.3009 40.2329,54.1699 40.2889,54.0429 C40.3439,53.9189 40.4029,53.7979 40.4629,53.6789 C40.5199,53.5649 40.5779,53.4529 40.6399,53.3439 C40.7069,53.2239 40.7779,53.1059 40.8499,52.9909 C40.9109,52.8949 40.9749,52.8019 41.0389,52.7099 C41.1209,52.5939 41.2029,52.4789 41.2899,52.3699 C41.3519,52.2909 41.4169,52.2159 41.4819,52.1409 C41.5789,52.0289 41.6759,51.9179 41.7779,51.8139 C41.8369,51.7529 41.8989,51.6969 41.9589,51.6389 C42.0739,51.5299 42.1899,51.4219 42.3109,51.3219 C42.3569,51.2829 42.4059,51.2489 42.4529,51.2119 C42.5939,51.1019 42.7369,50.9929 42.8849,50.8949 C42.8969,50.8869 42.9079,50.8809 42.9199,50.8739 C43.8579,50.2609 44.9369,49.8849 46.0959,49.7539 C46.4069,49.7189 46.7209,49.6959 47.0419,49.6959 L47.2639,49.6959 L47.2639,48.8359 L47.2639,47.3359 C47.2639,46.9179 46.9059,46.5969 46.4879,46.6209" id="Fill-42" fill="#767B79"></path>
                <path d="M116.2298,46.6209 C116.0968,46.6289 115.9688,46.6509 115.8378,46.6649 L115.8378,46.6579 C115.8078,46.6619 115.7798,46.6709 115.7498,46.6749 C115.4138,46.7149 115.0848,46.7739 114.7678,46.8569 C114.7488,46.8619 114.7288,46.8649 114.7088,46.8699 C114.3758,46.9599 114.0528,47.0729 113.7408,47.2059 C113.6728,47.2349 113.6088,47.2689 113.5428,47.2989 C113.3168,47.4039 113.0978,47.5179 112.8838,47.6439 C112.7858,47.7009 112.6878,47.7589 112.5918,47.8199 C112.4018,47.9439 112.2188,48.0769 112.0398,48.2159 C111.8708,48.3469 111.7088,48.4869 111.5488,48.6309 C111.4278,48.7409 111.3068,48.8499 111.1918,48.9669 C111.0618,49.0989 110.9378,49.2369 110.8148,49.3769 C110.7808,49.4159 110.7438,49.4509 110.7108,49.4909 L110.7108,49.5029 C110.0998,50.2289 109.5758,51.0519 109.1748,51.9589 L109.1748,49.3109 L109.1748,48.2479 L109.1748,47.6639 C109.1748,47.2689 108.8558,46.9489 108.4608,46.9489 L107.0328,46.9489 C106.6378,46.9489 106.3178,47.2689 106.3178,47.6639 L106.3178,48.2479 L106.3178,64.1909 L106.3178,65.4219 C106.3178,65.8159 106.6378,66.1359 107.0328,66.1359 L108.4608,66.1359 C108.8558,66.1359 109.1748,65.8159 109.1748,65.4219 L109.1748,64.1909 L109.1748,58.4909 C109.1748,58.1419 109.1888,57.8049 109.2128,57.4759 C109.2208,57.3639 109.2368,57.2589 109.2478,57.1489 C109.2698,56.9379 109.2908,56.7269 109.3218,56.5239 C109.3408,56.3969 109.3678,56.2759 109.3908,56.1509 C109.4238,55.9759 109.4568,55.8009 109.4968,55.6329 C109.5278,55.5039 109.5648,55.3809 109.5998,55.2559 C109.6428,55.1039 109.6858,54.9519 109.7348,54.8059 C109.7778,54.6779 109.8248,54.5549 109.8728,54.4319 C109.9238,54.3009 109.9748,54.1699 110.0308,54.0429 C110.0858,53.9189 110.1448,53.7979 110.2048,53.6789 C110.2618,53.5649 110.3198,53.4529 110.3818,53.3439 C110.4488,53.2239 110.5198,53.1059 110.5918,52.9909 C110.6528,52.8949 110.7168,52.8019 110.7808,52.7099 C110.8628,52.5939 110.9448,52.4789 111.0318,52.3699 C111.0938,52.2909 111.1588,52.2159 111.2238,52.1409 C111.3208,52.0289 111.4178,51.9179 111.5198,51.8139 C111.5788,51.7529 111.6408,51.6969 111.7008,51.6389 C111.8158,51.5299 111.9318,51.4219 112.0528,51.3219 C112.0988,51.2829 112.1478,51.2489 112.1948,51.2119 C112.3358,51.1019 112.4788,50.9929 112.6268,50.8949 C112.6388,50.8869 112.6498,50.8809 112.6618,50.8739 C113.5998,50.2609 114.6788,49.8849 115.8378,49.7539 C116.1488,49.7189 116.4628,49.6959 116.7838,49.6959 L117.0058,49.6959 L117.0058,48.8359 L117.0058,47.3359 C117.0058,46.9179 116.6478,46.5969 116.2298,46.6209" id="Fill-44" fill="#767B79"></path>
                <path d="M202.0434,46.6209 C201.9104,46.6289 201.7824,46.6509 201.6514,46.6649 L201.6514,46.6579 C201.6214,46.6619 201.5934,46.6709 201.5634,46.6749 C201.2274,46.7149 200.8984,46.7739 200.5814,46.8569 C200.5624,46.8619 200.5424,46.8649 200.5224,46.8699 C200.1894,46.9599 199.8664,47.0729 199.5544,47.2059 C199.4864,47.2349 199.4224,47.2689 199.3564,47.2989 C199.1304,47.4039 198.9114,47.5179 198.6974,47.6439 C198.5994,47.7009 198.5014,47.7589 198.4054,47.8199 C198.2154,47.9439 198.0324,48.0769 197.8534,48.2159 C197.6844,48.3469 197.5224,48.4869 197.3624,48.6309 C197.2414,48.7409 197.1204,48.8499 197.0054,48.9669 C196.8754,49.0989 196.7514,49.2369 196.6284,49.3769 C196.5944,49.4159 196.5574,49.4509 196.5244,49.4909 L196.5244,49.5029 C195.9134,50.2289 195.3894,51.0519 194.9884,51.9589 L194.9884,49.3109 L194.9884,48.2479 L194.9884,47.6639 C194.9884,47.2689 194.6694,46.9489 194.2744,46.9489 L192.8464,46.9489 C192.4514,46.9489 192.1314,47.2689 192.1314,47.6639 L192.1314,48.2479 L192.1314,64.1909 L192.1314,65.4219 C192.1314,65.8159 192.4514,66.1359 192.8464,66.1359 L194.2744,66.1359 C194.6694,66.1359 194.9884,65.8159 194.9884,65.4219 L194.9884,64.1909 L194.9884,58.4909 C194.9884,58.1419 195.0024,57.8049 195.0264,57.4759 C195.0344,57.3639 195.0504,57.2589 195.0614,57.1489 C195.0834,56.9379 195.1044,56.7269 195.1354,56.5239 C195.1544,56.3969 195.1814,56.2759 195.2044,56.1509 C195.2374,55.9759 195.2704,55.8009 195.3104,55.6329 C195.3414,55.5039 195.3784,55.3809 195.4134,55.2559 C195.4564,55.1039 195.4994,54.9519 195.5484,54.8059 C195.5914,54.6779 195.6384,54.5549 195.6864,54.4319 C195.7374,54.3009 195.7884,54.1699 195.8444,54.0429 C195.8994,53.9189 195.9584,53.7979 196.0184,53.6789 C196.0754,53.5649 196.1334,53.4529 196.1954,53.3439 C196.2624,53.2239 196.3334,53.1059 196.4054,52.9909 C196.4664,52.8949 196.5304,52.8019 196.5944,52.7099 C196.6764,52.5939 196.7584,52.4789 196.8454,52.3699 C196.9074,52.2909 196.9724,52.2159 197.0374,52.1409 C197.1344,52.0289 197.2314,51.9179 197.3334,51.8139 C197.3924,51.7529 197.4544,51.6969 197.5144,51.6389 C197.6294,51.5299 197.7454,51.4219 197.8664,51.3219 C197.9124,51.2829 197.9614,51.2489 198.0084,51.2119 C198.1494,51.1019 198.2924,50.9929 198.4404,50.8949 C198.4524,50.8869 198.4634,50.8809 198.4754,50.8739 C199.4134,50.2609 200.4924,49.8849 201.6514,49.7539 C201.9624,49.7189 202.2764,49.6959 202.5974,49.6959 L202.8194,49.6959 L202.8194,48.8359 L202.8194,47.3359 C202.8194,46.9179 202.4614,46.5969 202.0434,46.6209" id="Fill-46" fill="#767B79"></path>
                <path d="M100.5833,61.8604 L100.5833,61.8604 L95.5173,55.1884 L98.0563,52.5904 L98.0563,52.5904 L102.3843,48.1624 C102.8263,47.7104 102.5063,46.9494 101.8743,46.9494 L100.3113,46.9494 C100.1173,46.9494 99.9313,47.0284 99.7963,47.1694 L99.1543,47.8384 L99.1543,47.8384 L89.6523,57.7484 L89.6523,52.5904 L89.6523,44.0544 L89.6523,39.7584 C89.6523,39.3644 89.3333,39.0444 88.9393,39.0444 L87.5093,39.0444 C87.1153,39.0444 86.7953,39.3644 86.7953,39.7584 L86.7953,44.0544 L86.7953,52.5904 L86.7953,61.8604 L86.7953,63.9984 L86.7953,65.4224 C86.7953,65.8164 87.1153,66.1364 87.5093,66.1364 L88.9393,66.1364 C89.3333,66.1364 89.6523,65.8164 89.6523,65.4224 L89.6523,63.9984 L89.6523,61.8604 L89.6523,61.1264 L93.5503,57.1914 L98.4353,63.5564 L98.4353,63.5564 L100.2013,65.8564 C100.3363,66.0324 100.5453,66.1364 100.7673,66.1364 L102.3913,66.1364 C102.9813,66.1364 103.3173,65.4604 102.9603,64.9904 L100.5833,61.8604 Z" id="Fill-48" fill="#767B79"></path>
                <path d="M157.6493,62.1276 C154.0863,62.1276 151.0073,59.4566 151.0073,55.5956 L151.0073,55.5216 C151.0073,51.5886 154.0123,49.0646 157.6493,49.0646 C161.2863,49.0646 164.7003,51.6256 164.7003,55.5596 L164.7003,55.6336 C164.7003,59.4926 161.2863,62.1276 157.6493,62.1276 M166.7453,46.9496 L165.2913,46.9496 C164.9033,46.9496 164.5893,47.2636 164.5893,47.6516 L164.5893,47.6966 L164.5893,48.1106 L164.5893,50.4006 C163.0303,48.3226 160.6933,46.5416 157.0933,46.5416 C152.5283,46.5416 148.0743,49.9926 148.0743,55.5956 L148.0743,55.6706 C148.0743,61.2006 152.4903,64.6516 157.0933,64.6516 C160.6183,64.6516 162.9563,62.8326 164.6263,60.6066 L164.6263,62.8696 C164.6263,63.6816 164.5343,64.4206 164.3623,65.0906 C164.2703,65.4476 164.1513,65.7816 164.0133,66.0986 C163.9973,66.1366 163.9803,66.1746 163.9633,66.2116 C163.8223,66.5196 163.6623,66.8106 163.4793,67.0786 C163.4693,67.0926 163.4593,67.1046 163.4503,67.1176 C163.2673,67.3796 163.0633,67.6216 162.8413,67.8446 C162.8243,67.8616 162.8093,67.8806 162.7913,67.8976 C162.5693,68.1156 162.3253,68.3106 162.0663,68.4896 C162.0253,68.5176 161.9833,68.5456 161.9403,68.5736 C161.6763,68.7456 161.3993,68.9026 161.1013,69.0356 C161.0863,69.0426 161.0703,69.0476 161.0553,69.0536 C160.7683,69.1796 160.4643,69.2826 160.1483,69.3716 C160.0943,69.3866 160.0423,69.4036 159.9883,69.4176 C159.6673,69.5006 159.3313,69.5636 158.9833,69.6096 C158.9143,69.6186 158.8443,69.6246 158.7743,69.6326 C158.4113,69.6716 158.0383,69.6986 157.6493,69.6986 C157.2703,69.6986 156.8983,69.6776 156.5303,69.6446 C156.4343,69.6366 156.3393,69.6246 156.2443,69.6136 C155.9473,69.5806 155.6543,69.5376 155.3643,69.4836 C155.2933,69.4696 155.2213,69.4586 155.1513,69.4436 C154.4133,69.2916 153.6983,69.0726 153.0063,68.7886 C152.2743,68.4876 151.5663,68.1206 150.8843,67.6776 C150.5433,67.4556 150.0893,67.5486 149.8843,67.8996 L149.3033,68.8966 C149.1143,69.2206 149.2083,69.6466 149.5253,69.8466 C150.6053,70.5286 151.7563,71.0506 152.9583,71.4296 L152.9583,71.4346 C152.9923,71.4446 153.0283,71.4516 153.0623,71.4626 C153.3543,71.5526 153.6503,71.6326 153.9483,71.7046 C154.0273,71.7236 154.1063,71.7436 154.1853,71.7616 C154.4783,71.8276 154.7753,71.8826 155.0733,71.9306 C155.1633,71.9456 155.2513,71.9636 155.3413,71.9766 C155.6373,72.0196 155.9373,72.0506 156.2383,72.0776 C156.3293,72.0856 156.4193,72.0976 156.5113,72.1046 C156.8993,72.1316 157.2913,72.1476 157.6863,72.1476 C160.7303,72.1476 163.2903,71.2946 164.9973,69.5876 C165.2913,69.2936 165.5523,68.9666 165.7973,68.6236 C165.8353,68.5696 165.8743,68.5186 165.9113,68.4636 C166.1493,68.1106 166.3613,67.7316 166.5473,67.3266 C166.5593,67.3006 166.5703,67.2726 166.5823,67.2456 C166.9703,66.3756 167.2323,65.3896 167.3563,64.2886 C167.3563,64.2886 167.3563,64.2886 167.3563,64.2876 L167.3563,64.2876 C167.4103,63.8096 167.4473,63.3176 167.4473,62.7956 L167.4473,48.1286 L167.4473,47.6966 L167.4473,47.6516 C167.4473,47.2636 167.1333,46.9496 166.7453,46.9496" id="Fill-50" fill="#767B79"></path>
                <path d="M137.3452,46.5412 C136.8872,46.5412 136.4602,46.5802 136.0512,46.6402 C135.9352,46.6582 135.8292,46.6872 135.7162,46.7092 C135.4252,46.7652 135.1422,46.8312 134.8762,46.9162 C134.7702,46.9502 134.6702,46.9892 134.5692,47.0272 C134.3022,47.1262 134.0482,47.2372 133.8062,47.3622 C133.7312,47.4012 133.6562,47.4402 133.5832,47.4822 C133.3152,47.6332 133.0632,47.8002 132.8242,47.9812 C132.8002,47.9992 132.7722,48.0122 132.7482,48.0312 L132.7562,48.0312 C131.9482,48.6592 131.2952,49.4352 130.7762,50.2892 L130.7762,48.0312 L130.7762,47.7392 L130.7762,47.6672 C130.7762,47.2702 130.4552,46.9492 130.0592,46.9492 L128.6372,46.9492 C128.2402,46.9492 127.9192,47.2702 127.9192,47.6672 L127.9192,47.7392 L127.9192,64.4892 L127.9192,65.4182 C127.9192,65.8152 128.2402,66.1362 128.6372,66.1362 L130.0592,66.1362 C130.4552,66.1362 130.7762,65.8152 130.7762,65.4182 L130.7762,64.4892 L130.7762,55.1512 C130.7762,54.8722 130.7962,54.6022 130.8242,54.3382 C131.0372,52.3812 132.0162,50.8502 133.4602,49.9702 C133.8942,49.7062 134.3692,49.5012 134.8772,49.3602 C134.8952,49.3552 134.9132,49.3512 134.9322,49.3472 C135.1452,49.2892 135.3662,49.2472 135.5922,49.2132 C135.6492,49.2052 135.7062,49.1962 135.7642,49.1892 C136.0132,49.1592 136.2672,49.1392 136.5282,49.1392 C139.9062,49.1392 141.8362,51.3652 141.8362,54.9282 L141.8362,64.4892 L141.8362,65.4182 C141.8362,65.8152 142.1572,66.1362 142.5542,66.1362 L143.9762,66.1362 C144.3722,66.1362 144.6932,65.8152 144.6932,65.4182 L144.6932,64.4892 L144.6932,54.2232 C144.6932,49.6582 141.9842,46.5412 137.3452,46.5412" id="Fill-52" fill="#767B79"></path>
            </g>
        </g>
    </g>
</svg>